<svg width="48" height="48" viewBox="0 0 48 48" fill="none" xmlns="http://www.w3.org/2000/svg">
<path d="M30.984 15H31M36.984 15H37M44 14.566C44 19.85 39.522 24.134 34 24.134C33.3493 24.134 32.7047 24.074 32.066 23.954C31.606 23.868 31.376 23.826 31.216 23.85C31.056 23.874 30.828 23.994 30.376 24.236C29.0819 24.9258 27.5925 25.1577 26.15 24.894C26.7014 24.2127 27.0752 23.4052 27.238 22.544C27.338 22.014 27.09 21.5 26.718 21.124C24.9823 19.3822 24.0054 17.025 24 14.566C24 9.284 28.478 5 34 5C39.522 5 44 9.284 44 14.566ZM15.004 43H9.43599C8.78999 43 8.13999 42.908 7.54599 42.654C5.61399 41.824 4.63199 40.726 4.17599 40.04C4.05223 39.85 3.99143 39.6258 4.0022 39.3993C4.01296 39.1728 4.09476 38.9554 4.23599 38.778C6.47599 35.802 11.676 34.006 15.014 34.006C18.35 34.006 23.542 35.802 25.782 38.778C26.064 39.152 26.102 39.65 25.842 40.04C25.384 40.726 24.402 41.824 22.47 42.654C21.8697 42.8955 21.2269 43.0132 20.58 43H15.004ZM20.572 23.578C20.5709 24.3071 20.4263 25.0289 20.1463 25.7021C19.8663 26.3752 19.4565 26.9867 18.9402 27.5015C18.4239 28.0163 17.8113 28.4244 17.1373 28.7024C16.4633 28.9805 15.7411 29.1231 15.012 29.122C13.5402 29.1231 12.1282 28.5397 11.0864 27.5001C10.0445 26.4605 9.45811 25.0498 9.45599 23.578C9.45677 22.8489 9.60116 22.1271 9.8809 21.4538C10.1606 20.7805 10.5703 20.1689 11.0864 19.6539C11.6025 19.1389 12.215 18.7306 12.8889 18.4523C13.5628 18.174 14.2849 18.0312 15.014 18.032C15.7431 18.0312 16.4652 18.174 17.1391 18.4523C17.813 18.7306 18.4255 19.1389 18.9416 19.6539C19.4577 20.1689 19.8673 20.7805 20.1471 21.4538C20.4268 22.1271 20.5712 22.8489 20.572 23.578Z" stroke="url(#paint0_linear_536_583)" stroke-width="2" stroke-linecap="round" stroke-linejoin="round"/>
<defs>
<linearGradient id="paint0_linear_536_583" x1="0.601061" y1="-0.700151" x2="44.9735" y2="50.7752" gradientUnits="userSpaceOnUse">
<stop stop-color="#4078E4"/>
<stop offset="1" stop-color="#1E7ED7"/>
</linearGradient>
</defs>
</svg>
