<svg width="18" height="18" viewBox="0 0 18 18" fill="none" xmlns="http://www.w3.org/2000/svg">
<path d="M11.6191 5.625H11.6251M13.8691 5.625H13.8751M16.5001 5.46225C16.5001 7.44375 14.8209 9.05025 12.7501 9.05025C12.5061 9.05025 12.2644 9.02775 12.0249 8.98275C11.8524 8.9505 11.7661 8.93475 11.7061 8.94375C11.6461 8.95275 11.5606 8.99775 11.3911 9.0885C10.9058 9.34716 10.3473 9.43412 9.80637 9.33525C10.0131 9.07976 10.1533 8.77697 10.2144 8.454C10.2519 8.25525 10.1589 8.0625 10.0194 7.9215C9.3685 7.26831 9.00214 6.38436 9.00012 5.46225C9.00012 3.4815 10.6794 1.875 12.7501 1.875C14.8209 1.875 16.5001 3.4815 16.5001 5.46225ZM5.62662 16.125H3.53862C3.29637 16.125 3.05262 16.0905 2.82987 15.9952C2.10537 15.684 1.73712 15.2723 1.56612 15.015C1.51971 14.9437 1.49691 14.8597 1.50095 14.7747C1.50498 14.6898 1.53566 14.6083 1.58862 14.5417C2.42862 13.4257 4.37862 12.7523 5.63037 12.7523C6.88137 12.7523 8.82837 13.4257 9.66837 14.5417C9.77412 14.682 9.78837 14.8688 9.69087 15.015C9.51912 15.2723 9.15087 15.684 8.42637 15.9952C8.20128 16.0858 7.9602 16.13 7.71762 16.125H5.62662ZM7.71462 8.84175C7.71422 9.11516 7.65998 9.38582 7.55499 9.63827C7.44999 9.89072 7.2963 10.12 7.10269 10.3131C6.90908 10.5061 6.67934 10.6591 6.42659 10.7634C6.17384 10.8677 5.90303 10.9211 5.62962 10.9207C5.0777 10.9211 4.5482 10.7024 4.15751 10.3125C3.76682 9.92269 3.54691 9.39367 3.54612 8.84175C3.54641 8.56834 3.60056 8.29766 3.70546 8.04517C3.81036 7.79269 3.96397 7.56334 4.15751 7.37021C4.35105 7.17709 4.58074 7.02398 4.83345 6.91962C5.08616 6.81526 5.35695 6.7617 5.63037 6.762C5.90378 6.7617 6.17457 6.81526 6.42729 6.91962C6.68 7.02398 6.90968 7.17709 7.10322 7.37021C7.29676 7.56334 7.45037 7.79269 7.55527 8.04517C7.66018 8.29766 7.71432 8.56834 7.71462 8.84175Z" stroke="url(#paint0_linear_792_205)" stroke-linecap="round" stroke-linejoin="round"/>
<defs>
<linearGradient id="paint0_linear_792_205" x1="0.22552" y1="-0.262557" x2="16.8652" y2="19.0407" gradientUnits="userSpaceOnUse">
<stop stop-color="#4078E4"/>
<stop offset="1" stop-color="#1E7ED7"/>
</linearGradient>
</defs>
</svg>
