<svg width="48" height="48" viewBox="0 0 48 48" fill="none" xmlns="http://www.w3.org/2000/svg">
<path d="M34 10H44M34 16H44M40 22H44M10.16 30.592C7.72396 32.068 1.33596 35.078 5.22796 38.844C7.12796 40.684 9.24596 42 11.908 42H27.094C29.754 42 31.872 40.684 33.774 38.844C37.664 35.078 31.274 32.066 28.838 30.592C26.0183 28.8964 22.7902 28.0006 19.5 28.0006C16.2097 28.0006 12.9796 28.8964 10.16 30.592ZM27 14C27 16.1217 26.1571 18.1566 24.6568 19.6569C23.1565 21.1571 21.1217 22 19 22C16.8782 22 14.8434 21.1571 13.3431 19.6569C11.8428 18.1566 11 16.1217 11 14C11 11.8783 11.8428 9.84344 13.3431 8.34315C14.8434 6.84285 16.8782 6 19 6C21.1217 6 23.1565 6.84285 24.6568 8.34315C26.1571 9.84344 27 11.8783 27 14Z" stroke="url(#paint0_linear_536_587)" stroke-width="2" stroke-linecap="round" stroke-linejoin="round"/>
<defs>
<linearGradient id="paint0_linear_536_587" x1="0.600004" y1="0.6" x2="42.2426" y2="51.5949" gradientUnits="userSpaceOnUse">
<stop stop-color="#4078E4"/>
<stop offset="1" stop-color="#1E7ED7"/>
</linearGradient>
</defs>
</svg>
