<svg width="18" height="18" viewBox="0 0 18 18" fill="none" xmlns="http://www.w3.org/2000/svg">
<path d="M3 9.00012C3 10.5914 3.63214 12.1175 4.75736 13.2428C5.88258 14.368 7.4087 15.0001 9 15.0001M3 9.00012C3 7.40882 3.63214 5.8827 4.75736 4.75748C5.88258 3.63226 7.4087 3.00012 9 3.00012M3 9.00012H1.5M9 15.0001C10.5913 15.0001 12.1174 14.368 13.2426 13.2428C14.3679 12.1175 15 10.5914 15 9.00012M9 15.0001V16.5001M15 9.00012C15 7.40882 14.3679 5.8827 13.2426 4.75748C12.1174 3.63226 10.5913 3.00012 9 3.00012M15 9.00012H16.5M9 3.00012V1.50012M6.75 9.00012C6.75 9.59686 6.98705 10.1692 7.40901 10.5911C7.83097 11.0131 8.40326 11.2501 9 11.2501C9.59674 11.2501 10.169 11.0131 10.591 10.5911C11.0129 10.1692 11.25 9.59686 11.25 9.00012C11.25 8.40338 11.0129 7.83109 10.591 7.40913C10.169 6.98717 9.59674 6.75012 9 6.75012C8.40326 6.75012 7.83097 6.98717 7.40901 7.40913C6.98705 7.83109 6.75 8.40338 6.75 9.00012Z" stroke="url(#paint0_linear_790_153)" stroke-linecap="round" stroke-linejoin="round"/>
<defs>
<linearGradient id="paint0_linear_790_153" x1="0.225" y1="-0.749878" x2="17.85" y2="18.6751" gradientUnits="userSpaceOnUse">
<stop stop-color="#4078E4"/>
<stop offset="1" stop-color="#1E7ED7"/>
</linearGradient>
</defs>
</svg>
