<svg width="20" height="20" viewBox="0 0 20 20" fill="none" xmlns="http://www.w3.org/2000/svg">
<path d="M11.2502 5.41671L14.5835 8.75004M13.3335 15.8334H18.3335M15.8335 13.3334V18.3334M3.3335 16.6668H6.66683L15.4168 7.91676C15.6357 7.69789 15.8093 7.43805 15.9278 7.15208C16.0462 6.86612 16.1072 6.55962 16.1072 6.25009C16.1072 5.94056 16.0462 5.63406 15.9278 5.3481C15.8093 5.06213 15.6357 4.80229 15.4168 4.58342C15.198 4.36455 14.9381 4.19094 14.6522 4.07248C14.3662 3.95403 14.0597 3.89307 13.7502 3.89307C13.4406 3.89307 13.1341 3.95403 12.8482 4.07248C12.5622 4.19094 12.3024 4.36455 12.0835 4.58342L3.3335 13.3334V16.6668Z" stroke="black" stroke-linecap="round" stroke-linejoin="round"/>
</svg>
