<svg width="39" height="38" viewBox="0 0 39 38" fill="none" xmlns="http://www.w3.org/2000/svg">
<path d="M6.83301 11.0833H32.1663M8.41634 11.0833L9.99967 30.0833C9.99967 30.9232 10.3333 31.7286 10.9272 32.3225C11.521 32.9164 12.3265 33.25 13.1663 33.25H25.833C26.6729 33.25 27.4783 32.9164 28.0722 32.3225C28.666 31.7286 28.9997 30.9232 28.9997 30.0833L30.583 11.0833M14.7497 11.0833V6.33333C14.7497 5.91341 14.9165 5.51068 15.2134 5.21375C15.5104 4.91681 15.9131 4.75 16.333 4.75H22.6663C23.0863 4.75 23.489 4.91681 23.7859 5.21375C24.0829 5.51068 24.2497 5.91341 24.2497 6.33333V11.0833M16.333 19L22.6663 25.3333M22.6663 19L16.333 25.3333" stroke="#FF3B30" stroke-width="2" stroke-linecap="round" stroke-linejoin="round"/>
</svg>
