<svg width="18" height="19" viewBox="0 0 18 19" fill="none" xmlns="http://www.w3.org/2000/svg">
<path d="M3 5.47632H15M7.5 8.47632V12.9763M10.5 8.47632V12.9763M3.75 5.47632L4.5 14.4763C4.5 14.8741 4.65804 15.2557 4.93934 15.537C5.22064 15.8183 5.60218 15.9763 6 15.9763H12C12.3978 15.9763 12.7794 15.8183 13.0607 15.537C13.342 15.2557 13.5 14.8741 13.5 14.4763L14.25 5.47632M6.75 5.47632V3.22632C6.75 3.02741 6.82902 2.83664 6.96967 2.69599C7.11032 2.55534 7.30109 2.47632 7.5 2.47632H10.5C10.6989 2.47632 10.8897 2.55534 11.0303 2.69599C11.171 2.83664 11.25 3.02741 11.25 3.22632V5.47632" stroke="url(#paint0_linear_792_201)" stroke-linecap="round" stroke-linejoin="round"/>
<defs>
<linearGradient id="paint0_linear_792_201" x1="1.98" y1="0.451318" x2="17.9142" y2="16.0616" gradientUnits="userSpaceOnUse">
<stop stop-color="#4078E4"/>
<stop offset="1" stop-color="#1E7ED7"/>
</linearGradient>
</defs>
</svg>
