<svg width="18" height="19" viewBox="0 0 18 19" fill="none" xmlns="http://www.w3.org/2000/svg">
<path d="M10.5 6.72607V5.22607C10.5 4.82825 10.342 4.44672 10.0607 4.16541C9.77936 3.88411 9.39782 3.72607 9 3.72607H3.75C3.35218 3.72607 2.97064 3.88411 2.68934 4.16541C2.40804 4.44672 2.25 4.82825 2.25 5.22607V14.2261C2.25 14.6239 2.40804 15.0054 2.68934 15.2867C2.97064 15.568 3.35218 15.7261 3.75 15.7261H9C9.39782 15.7261 9.77936 15.568 10.0607 15.2867C10.342 15.0054 10.5 14.6239 10.5 14.2261V12.7261M6.75 9.72607H15.75M15.75 9.72607L13.5 7.47607M15.75 9.72607L13.5 11.9761" stroke="#FF3B30" stroke-linecap="round" stroke-linejoin="round"/>
</svg>
