<svg width="48" height="48" viewBox="0 0 48 48" fill="none" xmlns="http://www.w3.org/2000/svg">
<path d="M8.99671 39.0053C9.59279 39.6014 10.3355 39.9 11.232 39.9H36.7679C37.6658 39.8987 38.4092 39.5994 39.0053 39.0033C39.6014 38.4072 39.9 37.6645 39.9 36.768V32.022H38.1L38.1 36.7676L38.1 36.768M8.99671 39.0053L36.77 38C37.0767 38 37.3587 37.872 37.616 37.616C37.8733 37.36 38.0013 37.0773 38 36.768H38.1M8.99671 39.0053C8.40062 38.4092 8.1013 37.6658 8.1 36.7679L8.1 32.022H9.9V36.768C9.9 37.1071 10.042 37.4141 10.3131 37.6865C10.5842 37.9591 10.8907 38.1013 11.23 38.1M8.99671 39.0053L11.23 38.1M38.1 36.768C38.1013 37.1086 37.9592 37.4157 37.6865 37.6869C37.4142 37.9579 37.1079 38.1 36.77 38.1L11.2304 38.1M38.1 36.768L11.2304 38.1M11.2304 38.1L11.23 38.1M11.2304 38.1L11.23 38.1M24 33.132C23.6393 33.132 23.3375 33.0081 23.0887 32.7593C22.84 32.5105 22.716 32.2082 22.716 31.846C22.716 31.4837 22.8394 31.182 23.0867 30.9347C23.3369 30.6858 23.6393 30.562 24 30.562C24.3609 30.562 24.6627 30.6853 24.9115 30.9329C25.16 31.1802 25.284 31.4824 25.284 31.846C25.284 32.2098 25.1605 32.512 24.9133 32.7593C24.6658 33.0068 24.3634 33.132 24 33.132ZM23.1 25.592V8.1H24.9V25.592H23.1Z" fill="url(#paint0_linear_536_585)" stroke="url(#paint1_linear_536_585)" stroke-width="0.2"/>
<defs>
<linearGradient id="paint0_linear_536_585" x1="5.28" y1="3.2" x2="42.88" y2="44.64" gradientUnits="userSpaceOnUse">
<stop stop-color="#4078E4"/>
<stop offset="1" stop-color="#1E7ED7"/>
</linearGradient>
<linearGradient id="paint1_linear_536_585" x1="5.28" y1="3.2" x2="42.88" y2="44.64" gradientUnits="userSpaceOnUse">
<stop stop-color="#4078E4"/>
<stop offset="1" stop-color="#1E7ED7"/>
</linearGradient>
</defs>
</svg>
